%TF.GenerationSoftware,KiCad,Pcbnew,(5.1.6)-1*%
%TF.CreationDate,2020-07-27T22:26:38+01:00*%
%TF.ProjectId,enc-led,656e632d-6c65-4642-9e6b-696361645f70,rev?*%
%TF.SameCoordinates,Original*%
%TF.FileFunction,Legend,Top*%
%TF.FilePolarity,Positive*%
%FSLAX46Y46*%
G04 Gerber Fmt 4.6, Leading zero omitted, Abs format (unit mm)*
G04 Created by KiCad (PCBNEW (5.1.6)-1) date 2020-07-27 22:26:38*
%MOMM*%
%LPD*%
G01*
G04 APERTURE LIST*
%ADD10C,0.150000*%
%ADD11C,0.120000*%
G04 APERTURE END LIST*
D10*
X21419047Y-36771428D02*
X22180952Y-36771428D01*
X21800000Y-37152380D02*
X21800000Y-36390476D01*
X21419047Y-23921428D02*
X22180952Y-23921428D01*
X21800000Y-24302380D02*
X21800000Y-23540476D01*
X31219047Y-36921428D02*
X31980952Y-36921428D01*
X33819047Y-36971428D02*
X34580952Y-36971428D01*
X34200000Y-37352380D02*
X34200000Y-36590476D01*
X33869047Y-23921428D02*
X34630952Y-23921428D01*
X34250000Y-24302380D02*
X34250000Y-23540476D01*
D11*
%TO.C,R1*%
X30845522Y-34674273D02*
X31075727Y-34904478D01*
X30124273Y-35395522D02*
X30354478Y-35625727D01*
%TO.C,J2*%
X20470000Y-37670000D02*
X21800000Y-37670000D01*
X20470000Y-39000000D02*
X20470000Y-37670000D01*
X20470000Y-40270000D02*
X23130000Y-40270000D01*
X23130000Y-40270000D02*
X23130000Y-40330000D01*
X20470000Y-40270000D02*
X20470000Y-40330000D01*
X20470000Y-40330000D02*
X23130000Y-40330000D01*
%TO.C,J1*%
X35530000Y-37670000D02*
X35530000Y-39000000D01*
X34200000Y-37670000D02*
X35530000Y-37670000D01*
X32930000Y-37670000D02*
X32930000Y-40330000D01*
X32930000Y-40330000D02*
X30330000Y-40330000D01*
X32930000Y-37670000D02*
X30330000Y-37670000D01*
X30330000Y-37670000D02*
X30330000Y-40330000D01*
%TO.C,J3*%
X32870000Y-20470000D02*
X34200000Y-20470000D01*
X32870000Y-21800000D02*
X32870000Y-20470000D01*
X32870000Y-23070000D02*
X35530000Y-23070000D01*
X35530000Y-23070000D02*
X35530000Y-23130000D01*
X32870000Y-23070000D02*
X32870000Y-23130000D01*
X32870000Y-23130000D02*
X35530000Y-23130000D01*
%TO.C,J4*%
X20470000Y-20470000D02*
X21800000Y-20470000D01*
X20470000Y-21800000D02*
X20470000Y-20470000D01*
X20470000Y-23070000D02*
X23130000Y-23070000D01*
X23130000Y-23070000D02*
X23130000Y-23130000D01*
X20470000Y-23070000D02*
X20470000Y-23130000D01*
X20470000Y-23130000D02*
X23130000Y-23130000D01*
%TO.C,D3*%
X24429029Y-32068548D02*
X23286529Y-30089680D01*
X23155971Y-32803548D02*
X24429029Y-32068548D01*
X22013471Y-30824680D02*
X23155971Y-32803548D01*
%TO.C,D2*%
X26515000Y-23385000D02*
X28800000Y-23385000D01*
X26515000Y-21915000D02*
X26515000Y-23385000D01*
X28800000Y-21915000D02*
X26515000Y-21915000D01*
%TO.C,D1*%
X33186529Y-32210320D02*
X34329029Y-30231452D01*
X34329029Y-30231452D02*
X33055971Y-29496452D01*
X33055971Y-29496452D02*
X31913471Y-31475320D01*
%TO.C,R1*%
D10*
X31173430Y-34340867D02*
X31274445Y-33768447D01*
X30769369Y-33936806D02*
X31476475Y-33229699D01*
X31745850Y-33499073D01*
X31779521Y-33600088D01*
X31779521Y-33667432D01*
X31745850Y-33768447D01*
X31644834Y-33869462D01*
X31543819Y-33903134D01*
X31476475Y-33903134D01*
X31375460Y-33869462D01*
X31106086Y-33600088D01*
X31846865Y-35014302D02*
X31442804Y-34610241D01*
X31644834Y-34812272D02*
X32351941Y-34105165D01*
X32183582Y-34138837D01*
X32048895Y-34138837D01*
X31947880Y-34105165D01*
%TO.C,D3*%
X21050762Y-31451981D02*
X21916788Y-30951981D01*
X22035836Y-31158177D01*
X22066025Y-31305705D01*
X22031165Y-31435802D01*
X21972496Y-31524661D01*
X21831348Y-31661138D01*
X21707631Y-31732567D01*
X21518864Y-31786565D01*
X21412576Y-31792945D01*
X21282478Y-31758086D01*
X21169810Y-31658177D01*
X21050762Y-31451981D01*
X22369169Y-31735528D02*
X22678693Y-32271639D01*
X22182112Y-32173440D01*
X22253540Y-32297157D01*
X22259920Y-32403446D01*
X22242490Y-32468494D01*
X22183821Y-32557353D01*
X21977624Y-32676400D01*
X21871336Y-32682780D01*
X21806288Y-32665350D01*
X21717429Y-32606681D01*
X21574572Y-32359245D01*
X21568192Y-32252957D01*
X21585622Y-32187908D01*
%TO.C,D2*%
X27261904Y-21672380D02*
X27261904Y-20672380D01*
X27500000Y-20672380D01*
X27642857Y-20720000D01*
X27738095Y-20815238D01*
X27785714Y-20910476D01*
X27833333Y-21100952D01*
X27833333Y-21243809D01*
X27785714Y-21434285D01*
X27738095Y-21529523D01*
X27642857Y-21624761D01*
X27500000Y-21672380D01*
X27261904Y-21672380D01*
X28214285Y-20767619D02*
X28261904Y-20720000D01*
X28357142Y-20672380D01*
X28595238Y-20672380D01*
X28690476Y-20720000D01*
X28738095Y-20767619D01*
X28785714Y-20862857D01*
X28785714Y-20958095D01*
X28738095Y-21100952D01*
X28166666Y-21672380D01*
X28785714Y-21672380D01*
%TO.C,D1*%
X34211141Y-32730399D02*
X33345116Y-32230399D01*
X33464163Y-32024203D01*
X33576831Y-31924294D01*
X33706929Y-31889435D01*
X33813217Y-31895814D01*
X34001984Y-31949813D01*
X34125702Y-32021242D01*
X34266850Y-32157719D01*
X34325519Y-32246578D01*
X34360378Y-32376675D01*
X34330189Y-32524203D01*
X34211141Y-32730399D01*
X34973046Y-31410741D02*
X34687332Y-31905613D01*
X34830189Y-31658177D02*
X33964163Y-31158177D01*
X34040262Y-31312084D01*
X34075122Y-31442182D01*
X34068742Y-31548470D01*
%TD*%
M02*
