%TF.GenerationSoftware,KiCad,Pcbnew,(5.1.6)-1*%
%TF.CreationDate,2020-07-27T22:26:38+01:00*%
%TF.ProjectId,enc-led,656e632d-6c65-4642-9e6b-696361645f70,rev?*%
%TF.SameCoordinates,Original*%
%TF.FileFunction,Paste,Top*%
%TF.FilePolarity,Positive*%
%FSLAX46Y46*%
G04 Gerber Fmt 4.6, Leading zero omitted, Abs format (unit mm)*
G04 Created by KiCad (PCBNEW (5.1.6)-1) date 2020-07-27 22:26:38*
%MOMM*%
%LPD*%
G01*
G04 APERTURE LIST*
G04 APERTURE END LIST*
%TO.C,R1*%
G36*
G01*
X30666292Y-35578684D02*
X31028684Y-35216291D01*
G75*
G02*
X31338044Y-35216291I154680J-154680D01*
G01*
X31647403Y-35525650D01*
G75*
G02*
X31647403Y-35835010I-154680J-154680D01*
G01*
X31285010Y-36197403D01*
G75*
G02*
X30975650Y-36197403I-154680J154680D01*
G01*
X30666291Y-35888044D01*
G75*
G02*
X30666291Y-35578684I154680J154680D01*
G01*
G37*
G36*
G01*
X29552598Y-34464990D02*
X29914990Y-34102597D01*
G75*
G02*
X30224350Y-34102597I154680J-154680D01*
G01*
X30533709Y-34411956D01*
G75*
G02*
X30533709Y-34721316I-154680J-154680D01*
G01*
X30171316Y-35083709D01*
G75*
G02*
X29861956Y-35083709I-154680J154680D01*
G01*
X29552597Y-34774350D01*
G75*
G02*
X29552597Y-34464990I154680J154680D01*
G01*
G37*
%TD*%
%TO.C,D3*%
G36*
G01*
X23096919Y-30718766D02*
X22653081Y-30975016D01*
G75*
G02*
X22354263Y-30894948I-109375J189443D01*
G01*
X22135513Y-30516062D01*
G75*
G02*
X22215581Y-30217244I189443J109375D01*
G01*
X22659419Y-29960994D01*
G75*
G02*
X22958237Y-30041062I109375J-189443D01*
G01*
X23176987Y-30419948D01*
G75*
G02*
X23096919Y-30718766I-189443J-109375D01*
G01*
G37*
G36*
G01*
X23884419Y-32082756D02*
X23440581Y-32339006D01*
G75*
G02*
X23141763Y-32258938I-109375J189443D01*
G01*
X22923013Y-31880052D01*
G75*
G02*
X23003081Y-31581234I189443J109375D01*
G01*
X23446919Y-31324984D01*
G75*
G02*
X23745737Y-31405052I109375J-189443D01*
G01*
X23964487Y-31783938D01*
G75*
G02*
X23884419Y-32082756I-189443J-109375D01*
G01*
G37*
%TD*%
%TO.C,D2*%
G36*
G01*
X28350000Y-22906250D02*
X28350000Y-22393750D01*
G75*
G02*
X28568750Y-22175000I218750J0D01*
G01*
X29006250Y-22175000D01*
G75*
G02*
X29225000Y-22393750I0J-218750D01*
G01*
X29225000Y-22906250D01*
G75*
G02*
X29006250Y-23125000I-218750J0D01*
G01*
X28568750Y-23125000D01*
G75*
G02*
X28350000Y-22906250I0J218750D01*
G01*
G37*
G36*
G01*
X26775000Y-22906250D02*
X26775000Y-22393750D01*
G75*
G02*
X26993750Y-22175000I218750J0D01*
G01*
X27431250Y-22175000D01*
G75*
G02*
X27650000Y-22393750I0J-218750D01*
G01*
X27650000Y-22906250D01*
G75*
G02*
X27431250Y-23125000I-218750J0D01*
G01*
X26993750Y-23125000D01*
G75*
G02*
X26775000Y-22906250I0J218750D01*
G01*
G37*
%TD*%
%TO.C,D1*%
G36*
G01*
X33340581Y-29960994D02*
X33784419Y-30217244D01*
G75*
G02*
X33864487Y-30516062I-109375J-189443D01*
G01*
X33645737Y-30894948D01*
G75*
G02*
X33346919Y-30975016I-189443J109375D01*
G01*
X32903081Y-30718766D01*
G75*
G02*
X32823013Y-30419948I109375J189443D01*
G01*
X33041763Y-30041062D01*
G75*
G02*
X33340581Y-29960994I189443J-109375D01*
G01*
G37*
G36*
G01*
X32553081Y-31324984D02*
X32996919Y-31581234D01*
G75*
G02*
X33076987Y-31880052I-109375J-189443D01*
G01*
X32858237Y-32258938D01*
G75*
G02*
X32559419Y-32339006I-189443J109375D01*
G01*
X32115581Y-32082756D01*
G75*
G02*
X32035513Y-31783938I109375J189443D01*
G01*
X32254263Y-31405052D01*
G75*
G02*
X32553081Y-31324984I189443J-109375D01*
G01*
G37*
%TD*%
M02*
