%TF.GenerationSoftware,KiCad,Pcbnew,(5.1.6)-1*%
%TF.CreationDate,2020-07-27T22:26:38+01:00*%
%TF.ProjectId,enc-led,656e632d-6c65-4642-9e6b-696361645f70,rev?*%
%TF.SameCoordinates,Original*%
%TF.FileFunction,Copper,L2,Bot*%
%TF.FilePolarity,Positive*%
%FSLAX46Y46*%
G04 Gerber Fmt 4.6, Leading zero omitted, Abs format (unit mm)*
G04 Created by KiCad (PCBNEW (5.1.6)-1) date 2020-07-27 22:26:38*
%MOMM*%
%LPD*%
G01*
G04 APERTURE LIST*
%TA.AperFunction,ComponentPad*%
%ADD10R,1.700000X1.700000*%
%TD*%
%TA.AperFunction,ComponentPad*%
%ADD11O,1.700000X1.700000*%
%TD*%
%TA.AperFunction,Conductor*%
%ADD12C,0.250000*%
%TD*%
%TA.AperFunction,Conductor*%
%ADD13C,0.254000*%
%TD*%
G04 APERTURE END LIST*
D10*
%TO.P,J2,1*%
%TO.N,+5V*%
X21800000Y-39000000D03*
%TD*%
D11*
%TO.P,J1,2*%
%TO.N,GND*%
X31660000Y-39000000D03*
D10*
%TO.P,J1,1*%
%TO.N,+5V*%
X34200000Y-39000000D03*
%TD*%
%TO.P,J3,1*%
%TO.N,+5V*%
X34200000Y-21800000D03*
%TD*%
%TO.P,J4,1*%
%TO.N,+5V*%
X21800000Y-21800000D03*
%TD*%
D12*
%TO.N,+5V*%
X34200000Y-21840000D02*
X34240000Y-21800000D01*
X34240000Y-21800000D02*
X34240000Y-21840000D01*
X34200000Y-39000000D02*
X35400000Y-37800000D01*
X35400000Y-22960000D02*
X34240000Y-21800000D01*
X35400000Y-37800000D02*
X35400000Y-22960000D01*
X21800000Y-39000000D02*
X20600000Y-37800000D01*
X20600000Y-23000000D02*
X21800000Y-21800000D01*
X20600000Y-37800000D02*
X20600000Y-23000000D01*
%TD*%
D13*
%TO.N,GND*%
G36*
X32760498Y-20705820D02*
G01*
X32724188Y-20825518D01*
X32711928Y-20950000D01*
X32711928Y-22650000D01*
X32724188Y-22774482D01*
X32760498Y-22894180D01*
X32819463Y-23004494D01*
X32898815Y-23101185D01*
X32995506Y-23180537D01*
X33105820Y-23239502D01*
X33225518Y-23275812D01*
X33350000Y-23288072D01*
X34640001Y-23288072D01*
X34640000Y-37485198D01*
X34613270Y-37511928D01*
X33350000Y-37511928D01*
X33225518Y-37524188D01*
X33105820Y-37560498D01*
X32995506Y-37619463D01*
X32898815Y-37698815D01*
X32819463Y-37795506D01*
X32760498Y-37905820D01*
X32736034Y-37986466D01*
X32660269Y-37902412D01*
X32426920Y-37728359D01*
X32164099Y-37603175D01*
X32016890Y-37558524D01*
X31787000Y-37679845D01*
X31787000Y-38873000D01*
X31807000Y-38873000D01*
X31807000Y-39127000D01*
X31787000Y-39127000D01*
X31787000Y-39147000D01*
X31533000Y-39147000D01*
X31533000Y-39127000D01*
X30339186Y-39127000D01*
X30218519Y-39356891D01*
X30315843Y-39631252D01*
X30464822Y-39881355D01*
X30659731Y-40097588D01*
X30716592Y-40140000D01*
X23215010Y-40140000D01*
X23239502Y-40094180D01*
X23275812Y-39974482D01*
X23288072Y-39850000D01*
X23288072Y-38150000D01*
X23275812Y-38025518D01*
X23239502Y-37905820D01*
X23180537Y-37795506D01*
X23101185Y-37698815D01*
X23004494Y-37619463D01*
X22894180Y-37560498D01*
X22774482Y-37524188D01*
X22650000Y-37511928D01*
X21386729Y-37511928D01*
X21360000Y-37485199D01*
X21360000Y-37074947D01*
X25715000Y-37074947D01*
X25715000Y-37525053D01*
X25802811Y-37966510D01*
X25975059Y-38382353D01*
X26225125Y-38756603D01*
X26543397Y-39074875D01*
X26917647Y-39324941D01*
X27333490Y-39497189D01*
X27774947Y-39585000D01*
X28225053Y-39585000D01*
X28666510Y-39497189D01*
X29082353Y-39324941D01*
X29456603Y-39074875D01*
X29774875Y-38756603D01*
X29850709Y-38643109D01*
X30218519Y-38643109D01*
X30339186Y-38873000D01*
X31533000Y-38873000D01*
X31533000Y-37679845D01*
X31303110Y-37558524D01*
X31155901Y-37603175D01*
X30893080Y-37728359D01*
X30659731Y-37902412D01*
X30464822Y-38118645D01*
X30315843Y-38368748D01*
X30218519Y-38643109D01*
X29850709Y-38643109D01*
X30024941Y-38382353D01*
X30197189Y-37966510D01*
X30285000Y-37525053D01*
X30285000Y-37074947D01*
X30197189Y-36633490D01*
X30024941Y-36217647D01*
X29774875Y-35843397D01*
X29456603Y-35525125D01*
X29082353Y-35275059D01*
X28666510Y-35102811D01*
X28225053Y-35015000D01*
X27774947Y-35015000D01*
X27333490Y-35102811D01*
X26917647Y-35275059D01*
X26543397Y-35525125D01*
X26225125Y-35843397D01*
X25975059Y-36217647D01*
X25802811Y-36633490D01*
X25715000Y-37074947D01*
X21360000Y-37074947D01*
X21360000Y-27808210D01*
X22692737Y-27808210D01*
X22692737Y-28791790D01*
X22873469Y-29758624D01*
X23228780Y-30675785D01*
X23746568Y-31512043D01*
X24409202Y-32238918D01*
X25194117Y-32831657D01*
X26074582Y-33270077D01*
X27020615Y-33539247D01*
X28000000Y-33630000D01*
X28979385Y-33539247D01*
X29925418Y-33270077D01*
X30805883Y-32831657D01*
X31590798Y-32238918D01*
X32253432Y-31512043D01*
X32771220Y-30675785D01*
X33126531Y-29758624D01*
X33307263Y-28791790D01*
X33307263Y-27808210D01*
X33126531Y-26841376D01*
X32771220Y-25924215D01*
X32253432Y-25087957D01*
X31590798Y-24361082D01*
X30805883Y-23768343D01*
X29925418Y-23329923D01*
X28979385Y-23060753D01*
X28000000Y-22970000D01*
X27020615Y-23060753D01*
X26074582Y-23329923D01*
X25194117Y-23768343D01*
X24409202Y-24361082D01*
X23746568Y-25087957D01*
X23228780Y-25924215D01*
X22873469Y-26841376D01*
X22692737Y-27808210D01*
X21360000Y-27808210D01*
X21360000Y-23314801D01*
X21386729Y-23288072D01*
X22650000Y-23288072D01*
X22774482Y-23275812D01*
X22894180Y-23239502D01*
X23004494Y-23180537D01*
X23101185Y-23101185D01*
X23180537Y-23004494D01*
X23239502Y-22894180D01*
X23275812Y-22774482D01*
X23288072Y-22650000D01*
X23288072Y-20950000D01*
X23275812Y-20825518D01*
X23239502Y-20705820D01*
X23215010Y-20660000D01*
X32784990Y-20660000D01*
X32760498Y-20705820D01*
G37*
X32760498Y-20705820D02*
X32724188Y-20825518D01*
X32711928Y-20950000D01*
X32711928Y-22650000D01*
X32724188Y-22774482D01*
X32760498Y-22894180D01*
X32819463Y-23004494D01*
X32898815Y-23101185D01*
X32995506Y-23180537D01*
X33105820Y-23239502D01*
X33225518Y-23275812D01*
X33350000Y-23288072D01*
X34640001Y-23288072D01*
X34640000Y-37485198D01*
X34613270Y-37511928D01*
X33350000Y-37511928D01*
X33225518Y-37524188D01*
X33105820Y-37560498D01*
X32995506Y-37619463D01*
X32898815Y-37698815D01*
X32819463Y-37795506D01*
X32760498Y-37905820D01*
X32736034Y-37986466D01*
X32660269Y-37902412D01*
X32426920Y-37728359D01*
X32164099Y-37603175D01*
X32016890Y-37558524D01*
X31787000Y-37679845D01*
X31787000Y-38873000D01*
X31807000Y-38873000D01*
X31807000Y-39127000D01*
X31787000Y-39127000D01*
X31787000Y-39147000D01*
X31533000Y-39147000D01*
X31533000Y-39127000D01*
X30339186Y-39127000D01*
X30218519Y-39356891D01*
X30315843Y-39631252D01*
X30464822Y-39881355D01*
X30659731Y-40097588D01*
X30716592Y-40140000D01*
X23215010Y-40140000D01*
X23239502Y-40094180D01*
X23275812Y-39974482D01*
X23288072Y-39850000D01*
X23288072Y-38150000D01*
X23275812Y-38025518D01*
X23239502Y-37905820D01*
X23180537Y-37795506D01*
X23101185Y-37698815D01*
X23004494Y-37619463D01*
X22894180Y-37560498D01*
X22774482Y-37524188D01*
X22650000Y-37511928D01*
X21386729Y-37511928D01*
X21360000Y-37485199D01*
X21360000Y-37074947D01*
X25715000Y-37074947D01*
X25715000Y-37525053D01*
X25802811Y-37966510D01*
X25975059Y-38382353D01*
X26225125Y-38756603D01*
X26543397Y-39074875D01*
X26917647Y-39324941D01*
X27333490Y-39497189D01*
X27774947Y-39585000D01*
X28225053Y-39585000D01*
X28666510Y-39497189D01*
X29082353Y-39324941D01*
X29456603Y-39074875D01*
X29774875Y-38756603D01*
X29850709Y-38643109D01*
X30218519Y-38643109D01*
X30339186Y-38873000D01*
X31533000Y-38873000D01*
X31533000Y-37679845D01*
X31303110Y-37558524D01*
X31155901Y-37603175D01*
X30893080Y-37728359D01*
X30659731Y-37902412D01*
X30464822Y-38118645D01*
X30315843Y-38368748D01*
X30218519Y-38643109D01*
X29850709Y-38643109D01*
X30024941Y-38382353D01*
X30197189Y-37966510D01*
X30285000Y-37525053D01*
X30285000Y-37074947D01*
X30197189Y-36633490D01*
X30024941Y-36217647D01*
X29774875Y-35843397D01*
X29456603Y-35525125D01*
X29082353Y-35275059D01*
X28666510Y-35102811D01*
X28225053Y-35015000D01*
X27774947Y-35015000D01*
X27333490Y-35102811D01*
X26917647Y-35275059D01*
X26543397Y-35525125D01*
X26225125Y-35843397D01*
X25975059Y-36217647D01*
X25802811Y-36633490D01*
X25715000Y-37074947D01*
X21360000Y-37074947D01*
X21360000Y-27808210D01*
X22692737Y-27808210D01*
X22692737Y-28791790D01*
X22873469Y-29758624D01*
X23228780Y-30675785D01*
X23746568Y-31512043D01*
X24409202Y-32238918D01*
X25194117Y-32831657D01*
X26074582Y-33270077D01*
X27020615Y-33539247D01*
X28000000Y-33630000D01*
X28979385Y-33539247D01*
X29925418Y-33270077D01*
X30805883Y-32831657D01*
X31590798Y-32238918D01*
X32253432Y-31512043D01*
X32771220Y-30675785D01*
X33126531Y-29758624D01*
X33307263Y-28791790D01*
X33307263Y-27808210D01*
X33126531Y-26841376D01*
X32771220Y-25924215D01*
X32253432Y-25087957D01*
X31590798Y-24361082D01*
X30805883Y-23768343D01*
X29925418Y-23329923D01*
X28979385Y-23060753D01*
X28000000Y-22970000D01*
X27020615Y-23060753D01*
X26074582Y-23329923D01*
X25194117Y-23768343D01*
X24409202Y-24361082D01*
X23746568Y-25087957D01*
X23228780Y-25924215D01*
X22873469Y-26841376D01*
X22692737Y-27808210D01*
X21360000Y-27808210D01*
X21360000Y-23314801D01*
X21386729Y-23288072D01*
X22650000Y-23288072D01*
X22774482Y-23275812D01*
X22894180Y-23239502D01*
X23004494Y-23180537D01*
X23101185Y-23101185D01*
X23180537Y-23004494D01*
X23239502Y-22894180D01*
X23275812Y-22774482D01*
X23288072Y-22650000D01*
X23288072Y-20950000D01*
X23275812Y-20825518D01*
X23239502Y-20705820D01*
X23215010Y-20660000D01*
X32784990Y-20660000D01*
X32760498Y-20705820D01*
%TD*%
M02*
