%TF.GenerationSoftware,KiCad,Pcbnew,(5.1.6)-1*%
%TF.CreationDate,2020-07-27T22:26:39+01:00*%
%TF.ProjectId,enc-led,656e632d-6c65-4642-9e6b-696361645f70,rev?*%
%TF.SameCoordinates,Original*%
%TF.FileFunction,Legend,Bot*%
%TF.FilePolarity,Positive*%
%FSLAX46Y46*%
G04 Gerber Fmt 4.6, Leading zero omitted, Abs format (unit mm)*
G04 Created by KiCad (PCBNEW (5.1.6)-1) date 2020-07-27 22:26:39*
%MOMM*%
%LPD*%
G01*
G04 APERTURE LIST*
%ADD10C,0.100000*%
G04 APERTURE END LIST*
D10*
X31700000Y-21541666D02*
X31700000Y-21075000D01*
X31700000Y-21208333D02*
X31666666Y-21141666D01*
X31633333Y-21108333D01*
X31566666Y-21075000D01*
X31500000Y-21075000D01*
X31166666Y-21541666D02*
X31233333Y-21508333D01*
X31266666Y-21475000D01*
X31300000Y-21408333D01*
X31300000Y-21208333D01*
X31266666Y-21141666D01*
X31233333Y-21108333D01*
X31166666Y-21075000D01*
X31066666Y-21075000D01*
X31000000Y-21108333D01*
X30966666Y-21141666D01*
X30933333Y-21208333D01*
X30933333Y-21408333D01*
X30966666Y-21475000D01*
X31000000Y-21508333D01*
X31066666Y-21541666D01*
X31166666Y-21541666D01*
X30733333Y-21075000D02*
X30466666Y-21075000D01*
X30633333Y-20841666D02*
X30633333Y-21441666D01*
X30600000Y-21508333D01*
X30533333Y-21541666D01*
X30466666Y-21541666D01*
X29933333Y-21541666D02*
X29933333Y-21175000D01*
X29966666Y-21108333D01*
X30033333Y-21075000D01*
X30166666Y-21075000D01*
X30233333Y-21108333D01*
X29933333Y-21508333D02*
X30000000Y-21541666D01*
X30166666Y-21541666D01*
X30233333Y-21508333D01*
X30266666Y-21441666D01*
X30266666Y-21375000D01*
X30233333Y-21308333D01*
X30166666Y-21275000D01*
X30000000Y-21275000D01*
X29933333Y-21241666D01*
X29600000Y-21541666D02*
X29600000Y-21075000D01*
X29600000Y-21208333D02*
X29566666Y-21141666D01*
X29533333Y-21108333D01*
X29466666Y-21075000D01*
X29400000Y-21075000D01*
X29233333Y-21075000D02*
X29066666Y-21541666D01*
X28900000Y-21075000D02*
X29066666Y-21541666D01*
X29133333Y-21708333D01*
X29166666Y-21741666D01*
X29233333Y-21775000D01*
X27833333Y-21508333D02*
X27900000Y-21541666D01*
X28033333Y-21541666D01*
X28100000Y-21508333D01*
X28133333Y-21441666D01*
X28133333Y-21175000D01*
X28100000Y-21108333D01*
X28033333Y-21075000D01*
X27900000Y-21075000D01*
X27833333Y-21108333D01*
X27800000Y-21175000D01*
X27800000Y-21241666D01*
X28133333Y-21308333D01*
X27500000Y-21075000D02*
X27500000Y-21541666D01*
X27500000Y-21141666D02*
X27466666Y-21108333D01*
X27400000Y-21075000D01*
X27300000Y-21075000D01*
X27233333Y-21108333D01*
X27200000Y-21175000D01*
X27200000Y-21541666D01*
X26566666Y-21508333D02*
X26633333Y-21541666D01*
X26766666Y-21541666D01*
X26833333Y-21508333D01*
X26866666Y-21475000D01*
X26900000Y-21408333D01*
X26900000Y-21208333D01*
X26866666Y-21141666D01*
X26833333Y-21108333D01*
X26766666Y-21075000D01*
X26633333Y-21075000D01*
X26566666Y-21108333D01*
X26166666Y-21541666D02*
X26233333Y-21508333D01*
X26266666Y-21475000D01*
X26300000Y-21408333D01*
X26300000Y-21208333D01*
X26266666Y-21141666D01*
X26233333Y-21108333D01*
X26166666Y-21075000D01*
X26066666Y-21075000D01*
X26000000Y-21108333D01*
X25966666Y-21141666D01*
X25933333Y-21208333D01*
X25933333Y-21408333D01*
X25966666Y-21475000D01*
X26000000Y-21508333D01*
X26066666Y-21541666D01*
X26166666Y-21541666D01*
X25333333Y-21541666D02*
X25333333Y-20841666D01*
X25333333Y-21508333D02*
X25400000Y-21541666D01*
X25533333Y-21541666D01*
X25600000Y-21508333D01*
X25633333Y-21475000D01*
X25666666Y-21408333D01*
X25666666Y-21208333D01*
X25633333Y-21141666D01*
X25600000Y-21108333D01*
X25533333Y-21075000D01*
X25400000Y-21075000D01*
X25333333Y-21108333D01*
X24733333Y-21508333D02*
X24800000Y-21541666D01*
X24933333Y-21541666D01*
X25000000Y-21508333D01*
X25033333Y-21441666D01*
X25033333Y-21175000D01*
X25000000Y-21108333D01*
X24933333Y-21075000D01*
X24800000Y-21075000D01*
X24733333Y-21108333D01*
X24700000Y-21175000D01*
X24700000Y-21241666D01*
X25033333Y-21308333D01*
X24400000Y-21541666D02*
X24400000Y-21075000D01*
X24400000Y-21208333D02*
X24366666Y-21141666D01*
X24333333Y-21108333D01*
X24266666Y-21075000D01*
X24200000Y-21075000D01*
X31983333Y-22691666D02*
X31983333Y-21991666D01*
X31983333Y-22258333D02*
X31916666Y-22225000D01*
X31783333Y-22225000D01*
X31716666Y-22258333D01*
X31683333Y-22291666D01*
X31650000Y-22358333D01*
X31650000Y-22558333D01*
X31683333Y-22625000D01*
X31716666Y-22658333D01*
X31783333Y-22691666D01*
X31916666Y-22691666D01*
X31983333Y-22658333D01*
X31050000Y-22691666D02*
X31050000Y-22325000D01*
X31083333Y-22258333D01*
X31150000Y-22225000D01*
X31283333Y-22225000D01*
X31350000Y-22258333D01*
X31050000Y-22658333D02*
X31116666Y-22691666D01*
X31283333Y-22691666D01*
X31350000Y-22658333D01*
X31383333Y-22591666D01*
X31383333Y-22525000D01*
X31350000Y-22458333D01*
X31283333Y-22425000D01*
X31116666Y-22425000D01*
X31050000Y-22391666D01*
X30416666Y-22658333D02*
X30483333Y-22691666D01*
X30616666Y-22691666D01*
X30683333Y-22658333D01*
X30716666Y-22625000D01*
X30750000Y-22558333D01*
X30750000Y-22358333D01*
X30716666Y-22291666D01*
X30683333Y-22258333D01*
X30616666Y-22225000D01*
X30483333Y-22225000D01*
X30416666Y-22258333D01*
X30116666Y-22691666D02*
X30116666Y-21991666D01*
X30050000Y-22425000D02*
X29850000Y-22691666D01*
X29850000Y-22225000D02*
X30116666Y-22491666D01*
X29450000Y-22691666D02*
X29516666Y-22658333D01*
X29550000Y-22591666D01*
X29550000Y-21991666D01*
X29183333Y-22691666D02*
X29183333Y-22225000D01*
X29183333Y-21991666D02*
X29216666Y-22025000D01*
X29183333Y-22058333D01*
X29150000Y-22025000D01*
X29183333Y-21991666D01*
X29183333Y-22058333D01*
X28550000Y-22225000D02*
X28550000Y-22791666D01*
X28583333Y-22858333D01*
X28616666Y-22891666D01*
X28683333Y-22925000D01*
X28783333Y-22925000D01*
X28850000Y-22891666D01*
X28550000Y-22658333D02*
X28616666Y-22691666D01*
X28750000Y-22691666D01*
X28816666Y-22658333D01*
X28850000Y-22625000D01*
X28883333Y-22558333D01*
X28883333Y-22358333D01*
X28850000Y-22291666D01*
X28816666Y-22258333D01*
X28750000Y-22225000D01*
X28616666Y-22225000D01*
X28550000Y-22258333D01*
X28216666Y-22691666D02*
X28216666Y-21991666D01*
X27916666Y-22691666D02*
X27916666Y-22325000D01*
X27950000Y-22258333D01*
X28016666Y-22225000D01*
X28116666Y-22225000D01*
X28183333Y-22258333D01*
X28216666Y-22291666D01*
X27683333Y-22225000D02*
X27416666Y-22225000D01*
X27583333Y-21991666D02*
X27583333Y-22591666D01*
X27550000Y-22658333D01*
X27483333Y-22691666D01*
X27416666Y-22691666D01*
X26650000Y-22691666D02*
X26650000Y-21991666D01*
X26650000Y-22258333D02*
X26583333Y-22225000D01*
X26450000Y-22225000D01*
X26383333Y-22258333D01*
X26350000Y-22291666D01*
X26316666Y-22358333D01*
X26316666Y-22558333D01*
X26350000Y-22625000D01*
X26383333Y-22658333D01*
X26450000Y-22691666D01*
X26583333Y-22691666D01*
X26650000Y-22658333D01*
X25916666Y-22691666D02*
X25983333Y-22658333D01*
X26016666Y-22625000D01*
X26050000Y-22558333D01*
X26050000Y-22358333D01*
X26016666Y-22291666D01*
X25983333Y-22258333D01*
X25916666Y-22225000D01*
X25816666Y-22225000D01*
X25750000Y-22258333D01*
X25716666Y-22291666D01*
X25683333Y-22358333D01*
X25683333Y-22558333D01*
X25716666Y-22625000D01*
X25750000Y-22658333D01*
X25816666Y-22691666D01*
X25916666Y-22691666D01*
X25083333Y-22691666D02*
X25083333Y-22325000D01*
X25116666Y-22258333D01*
X25183333Y-22225000D01*
X25316666Y-22225000D01*
X25383333Y-22258333D01*
X25083333Y-22658333D02*
X25150000Y-22691666D01*
X25316666Y-22691666D01*
X25383333Y-22658333D01*
X25416666Y-22591666D01*
X25416666Y-22525000D01*
X25383333Y-22458333D01*
X25316666Y-22425000D01*
X25150000Y-22425000D01*
X25083333Y-22391666D01*
X24750000Y-22691666D02*
X24750000Y-22225000D01*
X24750000Y-22358333D02*
X24716666Y-22291666D01*
X24683333Y-22258333D01*
X24616666Y-22225000D01*
X24550000Y-22225000D01*
X24016666Y-22691666D02*
X24016666Y-21991666D01*
X24016666Y-22658333D02*
X24083333Y-22691666D01*
X24216666Y-22691666D01*
X24283333Y-22658333D01*
X24316666Y-22625000D01*
X24350000Y-22558333D01*
X24350000Y-22358333D01*
X24316666Y-22291666D01*
X24283333Y-22258333D01*
X24216666Y-22225000D01*
X24083333Y-22225000D01*
X24016666Y-22258333D01*
X33866666Y-34516666D02*
X33866666Y-34050000D01*
X33866666Y-34183333D02*
X33833333Y-34116666D01*
X33800000Y-34083333D01*
X33733333Y-34050000D01*
X33666666Y-34050000D01*
X33166666Y-34483333D02*
X33233333Y-34516666D01*
X33366666Y-34516666D01*
X33433333Y-34483333D01*
X33466666Y-34416666D01*
X33466666Y-34150000D01*
X33433333Y-34083333D01*
X33366666Y-34050000D01*
X33233333Y-34050000D01*
X33166666Y-34083333D01*
X33133333Y-34150000D01*
X33133333Y-34216666D01*
X33466666Y-34283333D01*
X32900000Y-34050000D02*
X32733333Y-34516666D01*
X32566666Y-34050000D01*
X32300000Y-34450000D02*
X32266666Y-34483333D01*
X32300000Y-34516666D01*
X32333333Y-34483333D01*
X32300000Y-34450000D01*
X32300000Y-34516666D01*
X31066666Y-34516666D02*
X31466666Y-34516666D01*
X31266666Y-34516666D02*
X31266666Y-33816666D01*
X31333333Y-33916666D01*
X31400000Y-33983333D01*
X31466666Y-34016666D01*
X29666666Y-33983333D02*
X29733333Y-33950000D01*
X29866666Y-33950000D01*
X29933333Y-33983333D01*
X30000000Y-34050000D01*
X30033333Y-34116666D01*
X30033333Y-34250000D01*
X30000000Y-34316666D01*
X29933333Y-34383333D01*
X29866666Y-34416666D01*
X29733333Y-34416666D01*
X29666666Y-34383333D01*
X29800000Y-33716666D02*
X29966666Y-33750000D01*
X30133333Y-33850000D01*
X30233333Y-34016666D01*
X30266666Y-34183333D01*
X30233333Y-34350000D01*
X30133333Y-34516666D01*
X29966666Y-34616666D01*
X29800000Y-34650000D01*
X29633333Y-34616666D01*
X29466666Y-34516666D01*
X29366666Y-34350000D01*
X29333333Y-34183333D01*
X29366666Y-34016666D01*
X29466666Y-33850000D01*
X29633333Y-33750000D01*
X29800000Y-33716666D01*
X28533333Y-33883333D02*
X28500000Y-33850000D01*
X28433333Y-33816666D01*
X28266666Y-33816666D01*
X28200000Y-33850000D01*
X28166666Y-33883333D01*
X28133333Y-33950000D01*
X28133333Y-34016666D01*
X28166666Y-34116666D01*
X28566666Y-34516666D01*
X28133333Y-34516666D01*
X27700000Y-33816666D02*
X27633333Y-33816666D01*
X27566666Y-33850000D01*
X27533333Y-33883333D01*
X27500000Y-33950000D01*
X27466666Y-34083333D01*
X27466666Y-34250000D01*
X27500000Y-34383333D01*
X27533333Y-34450000D01*
X27566666Y-34483333D01*
X27633333Y-34516666D01*
X27700000Y-34516666D01*
X27766666Y-34483333D01*
X27800000Y-34450000D01*
X27833333Y-34383333D01*
X27866666Y-34250000D01*
X27866666Y-34083333D01*
X27833333Y-33950000D01*
X27800000Y-33883333D01*
X27766666Y-33850000D01*
X27700000Y-33816666D01*
X27200000Y-33883333D02*
X27166666Y-33850000D01*
X27100000Y-33816666D01*
X26933333Y-33816666D01*
X26866666Y-33850000D01*
X26833333Y-33883333D01*
X26800000Y-33950000D01*
X26800000Y-34016666D01*
X26833333Y-34116666D01*
X27233333Y-34516666D01*
X26800000Y-34516666D01*
X26366666Y-33816666D02*
X26299999Y-33816666D01*
X26233333Y-33850000D01*
X26199999Y-33883333D01*
X26166666Y-33950000D01*
X26133333Y-34083333D01*
X26133333Y-34250000D01*
X26166666Y-34383333D01*
X26199999Y-34450000D01*
X26233333Y-34483333D01*
X26299999Y-34516666D01*
X26366666Y-34516666D01*
X26433333Y-34483333D01*
X26466666Y-34450000D01*
X26499999Y-34383333D01*
X26533333Y-34250000D01*
X26533333Y-34083333D01*
X26499999Y-33950000D01*
X26466666Y-33883333D01*
X26433333Y-33850000D01*
X26366666Y-33816666D01*
X24999999Y-34516666D02*
X24999999Y-33816666D01*
X24999999Y-34483333D02*
X25066666Y-34516666D01*
X25199999Y-34516666D01*
X25266666Y-34483333D01*
X25299999Y-34450000D01*
X25333333Y-34383333D01*
X25333333Y-34183333D01*
X25299999Y-34116666D01*
X25266666Y-34083333D01*
X25199999Y-34050000D01*
X25066666Y-34050000D01*
X24999999Y-34083333D01*
X24366666Y-34516666D02*
X24366666Y-34150000D01*
X24399999Y-34083333D01*
X24466666Y-34050000D01*
X24599999Y-34050000D01*
X24666666Y-34083333D01*
X24366666Y-34483333D02*
X24433333Y-34516666D01*
X24599999Y-34516666D01*
X24666666Y-34483333D01*
X24699999Y-34416666D01*
X24699999Y-34350000D01*
X24666666Y-34283333D01*
X24599999Y-34250000D01*
X24433333Y-34250000D01*
X24366666Y-34216666D01*
X23933333Y-34516666D02*
X24000000Y-34483333D01*
X24033333Y-34416666D01*
X24033333Y-33816666D01*
X23400000Y-34483333D02*
X23466666Y-34516666D01*
X23600000Y-34516666D01*
X23666666Y-34483333D01*
X23700000Y-34416666D01*
X23700000Y-34150000D01*
X23666666Y-34083333D01*
X23600000Y-34050000D01*
X23466666Y-34050000D01*
X23400000Y-34083333D01*
X23366666Y-34150000D01*
X23366666Y-34216666D01*
X23700000Y-34283333D01*
X22600000Y-34050000D02*
X22466666Y-34516666D01*
X22333333Y-34183333D01*
X22200000Y-34516666D01*
X22066666Y-34050000D01*
M02*
